<svg id="Capa_1" enable-background="new 0 0 509.332 509.332" height="512" viewBox="0 0 509.332 509.332" width="512" xmlns="http://www.w3.org/2000/svg"><path id="XMLID_65_" d="m328.729 258.847c-7.817 0-12.674 3.926-12.674 10.244 0 6.319 4.856 10.245 12.674 10.245s12.675-3.926 12.675-10.245-4.856-10.244-12.675-10.244z"/><path id="XMLID_68_" d="m328.729 238.433c6.161 0 9.84-3.123 9.84-8.354 0-5.237-3.771-8.49-9.84-8.49-6.076 0-9.704 3.174-9.704 8.49 0 5.231 3.628 8.354 9.704 8.354z"/><path id="XMLID_83_" d="m254.666 97.666c-86.57 0-157 70.43-157 157s70.43 157 157 157 157-70.43 157-157-70.43-157-157-157zm-42.314 166.15h-22.813v22.274h-27.79v-22.274h-22.949v-26.709h22.948v-22.274h27.79v22.274h22.813v26.709zm63.203 35.394h-29.729v-73.842h-17.55v-23.654h47.278v97.496zm53.174 1.89c-25.443 0-42.538-12.538-42.538-31.198 0-9.218 4.258-16.83 12.346-22.137-5.879-4.834-8.971-11.325-8.971-18.902 0-17.368 15.738-29.038 39.163-29.038s39.164 11.67 39.164 29.038c0 7.576-3.092 14.068-8.972 18.902 8.088 5.307 12.347 12.919 12.347 22.137.001 18.66-17.094 31.198-42.539 31.198z"/><path id="XMLID_93_" d="m434.742 74.59c-48.099-48.101-112.053-74.59-180.076-74.59s-131.977 26.489-180.076 74.59c-48.101 48.099-74.59 112.053-74.59 180.076s26.489 131.977 74.59 180.076c48.1 48.101 112.053 74.59 180.076 74.59s131.977-26.489 180.076-74.59c48.101-48.1 74.59-112.053 74.59-180.076s-26.489-131.977-74.59-180.076zm-180.076 367.076c-103.112 0-187-83.888-187-187s83.888-187 187-187 187 83.888 187 187-83.888 187-187 187z"/></svg>