<svg id="Capa_1" enable-background="new 0 0 512 512" height="512" viewBox="0 0 512 512" width="512" xmlns="http://www.w3.org/2000/svg"><path d="m456.075 256.115h-4.116c-22.66-84.476-98.445-147.377-189.122-150.401-17.73-5.081-30.012-22.724-30.012-43.382 0-17.828 14.468-32.333 32.252-32.333 12.573 0 22.802 10.258 22.802 22.866 0 8.284 6.716 15 15 15s15-6.716 15-15c0-29.149-23.687-52.865-52.802-52.865-34.326 0-62.252 27.962-62.252 62.333 0 17.594 5.641 33.925 15.297 46.82-76.582 14.545-138.063 72.333-158.081 146.962h-4.116c-30.837 0-55.925 25.071-55.925 55.888 0 30.816 25.088 55.887 55.925 55.887h5.949c25.333 83.315 102.769 144.11 194.126 144.11s168.793-60.795 194.126-144.11h5.949c30.837 0 55.925-25.071 55.925-55.888s-25.088-55.887-55.925-55.887zm-426.075 55.888c0-13.755 10.801-25.035 24.379-25.838-.826 7.432-1.265 14.979-1.265 22.628 0 9.873.721 19.579 2.086 29.079-13.96-.386-25.2-11.838-25.2-25.869zm226 169.997c-95.33 0-172.886-77.7-172.886-173.207s77.556-173.206 172.886-173.206 172.886 77.7 172.886 173.207-77.556 173.206-172.886 173.206zm200.8-144.128c1.365-9.5 2.086-19.206 2.086-29.079 0-7.649-.439-15.196-1.265-22.628 13.578.802 24.379 12.082 24.379 25.838 0 14.031-11.24 25.483-25.2 25.869z"/><path d="m218.277 308.62c.038-13.322-5.206-25.13-14.765-33.25-8.219-6.981-19.097-10.844-30.63-10.876-.05 0-.098 0-.148 0-11.478 0-22.321 3.798-30.543 10.702-9.605 8.065-14.917 19.844-14.955 33.166-.023 8.284 6.673 15.019 14.957 15.043 8.292.05 15.02-6.673 15.043-14.957.006-2.333.784-13.953 15.481-13.953h.08c14.772.042 15.488 11.704 15.481 14.041-.023 8.284 6.673 15.019 14.958 15.043h.043c8.263-.002 14.974-6.69 14.998-14.959z"/><path d="m363.699 270.923c-14.766-8.582-33.881-8.635-48.695-.138-13.479 7.73-21.235 21.427-21.281 37.576-.023 8.284 6.673 15.019 14.958 15.043h.043c8.264 0 14.976-6.688 14.999-14.957.016-5.445 2.045-9.251 6.207-11.638 5.425-3.112 13.288-3.089 18.695.053 4.147 2.41 6.156 6.228 6.14 11.673-.023 8.284 6.673 15.019 14.957 15.043h.044c8.264 0 14.976-6.688 14.999-14.957.046-16.151-7.633-29.891-21.066-37.698z"/><path d="m289.033 389.949c-8.284 0-15 6.716-15 15 0 9.926-8.089 18.002-18.033 18.002s-18.033-8.076-18.033-18.002c0-8.284-6.716-15-15-15s-15 6.716-15 15c0 26.469 21.547 48.002 48.033 48.002s48.033-21.533 48.033-48.002c0-8.284-6.716-15-15-15z"/></svg>