<?xml version="1.0" encoding="utf-8"?>
<!-- Generator: Adobe Illustrator 21.0.0, SVG Export Plug-In . SVG Version: 6.00 Build 0)  -->
<svg version="1.1" id="图层_1" xmlns="http://www.w3.org/2000/svg" xmlns:xlink="http://www.w3.org/1999/xlink" x="0px" y="0px"
	 viewBox="0 0 3628.4 2040.9" style="enable-background:new 0 0 3628.4 2040.9;" xml:space="preserve">
<style type="text/css">
	.st0{fill:#68398D;}
	.st1{fill:none;stroke:#68398D;stroke-width:7;stroke-miterlimit:10;}
	.st2{font-family:'CenturyGothic-Bold';}
	.st3{font-size:360.37px;}
	.st4{font-size:292.2148px;}
</style>
<g>
	<path class="st0" d="M674.2,851.6c0-25.6-20.6-46.2-45.8-46.2h-22.7v92.1h22.7C653.6,897.4,674.2,876.8,674.2,851.6 M777.5,1035.1
		h-83.4L628,943.3h-22.3v91.7h-73.5V759.6h105.3c60.7,0,110.2,41.3,110.2,92c0,31-19,58.6-47.9,75.5L777.5,1035.1"/>
	<path class="st0" d="M860.4,868.1c-19.4,0-35.9,26.4-35.9,59c0,32.6,16.5,59.1,35.9,59.1c19.9,0,36.3-26.4,36.3-59.1
		C896.7,894.5,880.3,868.1,860.4,868.1 M973.5,927.1c0,62.4-50.7,112.3-113.1,112.3c-62.3,0-112.7-49.9-112.7-112.3
		c0-62.3,50.3-112.3,112.7-112.3C922.8,814.8,973.5,864.8,973.5,927.1 M1145.9,819.4l-84.6,84.6v-84.9h-73.5v215.8h73.5v-87.5
		l88.4,87.5h92.5l-112.3-112.3l93-93v128.1c0,42.5,25.6,81.8,90,81.8c30.6,0,58.6-17.3,72.3-33l33,28.5h15.7V819.4h-73.5v139.5
		c-8.3,14.4-19.8,23.5-37.6,23.5c-18.1,0-26.4-10.7-26.4-45V819.4H1145.9L1145.9,819.4z"/>
</g>
<text transform="matrix(0.996 0 0 1 1457.7234 1039.4529)"><tspan x="0" y="0" class="st1 st2 st3">F</tspan><tspan x="173" y="0" class="st1 st2 st4">lashback</tspan></text>
</svg>
